/* XPM */
static char * iconJben_16_xpm[] = {
"16 16 124 2",
"  	c None",
". 	c #FFFFFF",
"+ 	c #FEFBFB",
"@ 	c #F7BFBF",
"# 	c #F8C4C4",
"$ 	c #F2F2F2",
"% 	c #E8E8E8",
"& 	c #F9CECE",
"* 	c #DF0000",
"= 	c #E63535",
"- 	c #949494",
"; 	c #303030",
"> 	c #BFBFBF",
", 	c #FCFCFC",
"' 	c #F39D9D",
") 	c #840000",
"! 	c #A06262",
"~ 	c #F5F5F5",
"{ 	c #232323",
"] 	c #4F4F4F",
"^ 	c #505050",
"/ 	c #0C0C0C",
"( 	c #C2C2C2",
"_ 	c #EC6B6B",
": 	c #590000",
"< 	c #AB9797",
"[ 	c #666666",
"} 	c #757575",
"| 	c #A9A9A9",
"1 	c #3D3D3D",
"2 	c #FEFEFE",
"3 	c #542222",
"4 	c #460000",
"5 	c #160000",
"6 	c #3C3A3A",
"7 	c #7D7D7D",
"8 	c #959595",
"9 	c #151515",
"0 	c #969696",
"a 	c #090909",
"b 	c #AFAFAF",
"c 	c #960808",
"d 	c #A70000",
"e 	c #130000",
"f 	c #B2B2B2",
"g 	c #181818",
"h 	c #EFEFEF",
"i 	c #F4F4F4",
"j 	c #424242",
"k 	c #484848",
"l 	c #545454",
"m 	c #606060",
"n 	c #2A2A2A",
"o 	c #990000",
"p 	c #D40000",
"q 	c #181616",
"r 	c #202020",
"s 	c #DFDFDF",
"t 	c #404040",
"u 	c #707070",
"v 	c #A30000",
"w 	c #1B1B1B",
"x 	c #626262",
"y 	c #1C1C1C",
"z 	c #313131",
"A 	c #5F0000",
"B 	c #968C8C",
"C 	c #111111",
"D 	c #9C9C9C",
"E 	c #7F7F7F",
"F 	c #818181",
"G 	c #323232",
"H 	c #802222",
"I 	c #B40000",
"J 	c #180000",
"K 	c #E5C0C0",
"L 	c #161616",
"M 	c #828282",
"N 	c #737373",
"O 	c #CFCFCF",
"P 	c #504F4F",
"Q 	c #E10F0F",
"R 	c #7B0000",
"S 	c #5B0101",
"T 	c #FDF0F0",
"U 	c #D6D6D6",
"V 	c #2E2E2E",
"W 	c #4B4B4B",
"X 	c #B6B6B6",
"Y 	c #4B2828",
"Z 	c #C50000",
"` 	c #1C0000",
" .	c #D02626",
"..	c #8E8E8E",
"+.	c #BCBCBC",
"@.	c #C9C9C9",
"#.	c #212121",
"$.	c #F9F9F9",
"%.	c #CE0000",
"&.	c #ED7070",
"*.	c #F6F6F6",
"=.	c #C6C6C6",
"-.	c #1E1E1E",
";.	c #C83131",
">.	c #190000",
",.	c #620000",
"'.	c #700000",
").	c #7C6161",
"!.	c #808080",
"~.	c #6B6B6B",
"{.	c #3F3F3F",
"].	c #CBCBCB",
"^.	c #FCE7E7",
"/.	c #A90000",
"(.	c #8E1313",
"_.	c #9D8E8E",
":.	c #9F9F9F",
"<.	c #A2A2A2",
"[.	c #EAEAEA",
"}.	c #FAD6D6",
"|.	c #EB6060",
"1.	c #ED7373",
"2.	c #F3A1A1",
"3.	c #FDF1F1",
". . . . . . . . + @ @ # . . . . ",
". . . $ % . . . & * * = . . . . ",
". . . - ; > > , ' * ) ! . . . . ",
". . ~ { ] ^ / ( _ * : < . . . . ",
". . [ } . | 1 2 3 4 5 6 ^ 7 2 . ",
". 8 9 | 0 a - b c d e f > g h . ",
". i j k l g m n o p q . . r h . ",
". . ^ > s t . u o v ^ . . w , . ",
". . ^ l x y u z o A B . . C . . ",
". . D u E F G H I J K . . L . . ",
". . . M N O P Q R S T . U V . . ",
". . . W X O Y Z `  .. h L ..+.. ",
". . @.#.$.O 4 * %.&.. . *.. g i ",
". =.-.> _ ;.>.,.'.).!.!.!.~.{.. ",
". % ].^.* * /.(._.:.:.:.:.<.[.. ",
". . . }.|.1.2.3.. . . . . . . . "};
