/* XPM */
static char * iconJben_48_xpm[] = {
"48 48 263 2",
"  	c None",
". 	c #FFFFFF",
"+ 	c #FADBDB",
"@ 	c #E74040",
"# 	c #ED6D6D",
"$ 	c #F39C9C",
"% 	c #DF0000",
"& 	c #EC6C6C",
"* 	c #EC6A6A",
"= 	c #F39E9E",
"- 	c #8A8A8A",
"; 	c #616161",
"> 	c #CFCFCF",
", 	c #F9D1D1",
"' 	c #FDFDFD",
") 	c #2A2A2A",
"! 	c #000000",
"~ 	c #787878",
"{ 	c #FFFDFD",
"] 	c #E10F0F",
"^ 	c #B30000",
"/ 	c #AF0000",
"( 	c #DA0000",
"_ 	c #E10E0E",
": 	c #FEF6F6",
"< 	c #C1C1C1",
"[ 	c #282828",
"} 	c #B2B2B2",
"| 	c #FAD9D9",
"1 	c #5B0000",
"2 	c #140000",
"3 	c #7C2020",
"4 	c #535353",
"5 	c #1D1D1D",
"6 	c #404040",
"7 	c #E4E4E4",
"8 	c #F4A6A6",
"9 	c #460000",
"0 	c #5C4D4D",
"a 	c #D1D1D1",
"b 	c #060606",
"c 	c #4E4E4E",
"d 	c #EE7474",
"e 	c #060000",
"f 	c #E29494",
"g 	c #484848",
"h 	c #1A1A1A",
"i 	c #F5F5F5",
"j 	c #E74141",
"k 	c #210000",
"l 	c #0E0000",
"m 	c #F8C7C7",
"n 	c #A5A5A5",
"o 	c #1B1B1B",
"p 	c #E6E6E6",
"q 	c #EFEFEF",
"r 	c #6C6C6C",
"s 	c #7F7F7F",
"t 	c #FEF9F9",
"u 	c #E21414",
"v 	c #1C0000",
"w 	c #170909",
"x 	c #FDF1F1",
"y 	c #E2E2E2",
"z 	c #121212",
"A 	c #B0B0B0",
"B 	c #C9C9C9",
"C 	c #181818",
"D 	c #F6F6F6",
"E 	c #EED1D1",
"F 	c #D10000",
"G 	c #C40000",
"H 	c #3A2A2A",
"I 	c #FAFAFA",
"J 	c #3D3D3D",
"K 	c #5B5B5B",
"L 	c #E9E9E9",
"M 	c #303030",
"N 	c #434343",
"O 	c #F4F4F4",
"P 	c #696969",
"Q 	c #242424",
"R 	c #EEEEEE",
"S 	c #F0F0F0",
"T 	c #383838",
"U 	c #5D5D5D",
"V 	c #FEFEFE",
"W 	c #424242",
"X 	c #8D8D8D",
"Y 	c #030303",
"Z 	c #F3F3F3",
"` 	c #363636",
" .	c #313131",
"..	c #F9F9F9",
"+.	c #5D3030",
"@.	c #380000",
"#.	c #1F0000",
"$.	c #959595",
"%.	c #020202",
"&.	c #040404",
"*.	c #A3A3A3",
"=.	c #505050",
"-.	c #151515",
";.	c #E1E1E1",
">.	c #E21818",
",.	c #590000",
"'.	c #C0C0C0",
").	c #606060",
"!.	c #EDEDED",
"~.	c #323232",
"{.	c #101010",
"].	c #0B0B0B",
"^.	c #1B0000",
"/.	c #340000",
"(.	c #9C9C9C",
"_.	c #727272",
":.	c #100000",
"<.	c #080808",
"[.	c #202020",
"}.	c #141414",
"|.	c #0A0A0A",
"1.	c #C20000",
"2.	c #3F3F3F",
"3.	c #9F9F9F",
"4.	c #BFBFBF",
"5.	c #960000",
"6.	c #670000",
"7.	c #ADADAD",
"8.	c #2B0000",
"9.	c #EBEBEB",
"0.	c #CA0000",
"a.	c #030000",
"b.	c #333333",
"c.	c #870000",
"d.	c #706E6E",
"e.	c #3C3C3C",
"f.	c #191919",
"g.	c #3E0000",
"h.	c #C3A9A9",
"i.	c #CD0000",
"j.	c #070000",
"k.	c #1D0000",
"l.	c #F9DCDC",
"m.	c #090909",
"n.	c #830000",
"o.	c #671313",
"p.	c #747474",
"q.	c #D9D9D9",
"r.	c #DFDFDF",
"s.	c #626262",
"t.	c #D7A1A1",
"u.	c #8A0000",
"v.	c #6F0000",
"w.	c #760000",
"x.	c #2A0000",
"y.	c #BE4646",
"z.	c #B1B1B1",
"A.	c #4C4C4C",
"B.	c #FCFCFC",
"C.	c #707070",
"D.	c #F18F8F",
"E.	c #980000",
"F.	c #2F0000",
"G.	c #ED7070",
"H.	c #4B4B4B",
"I.	c #AFAFAF",
"J.	c #050505",
"K.	c #CCCCCC",
"L.	c #EB5D5D",
"M.	c #DD0000",
"N.	c #2C0000",
"O.	c #A20000",
"P.	c #F3A2A2",
"Q.	c #858585",
"R.	c #888888",
"S.	c #E42A2A",
"T.	c #990000",
"U.	c #330000",
"V.	c #FAD5D5",
"W.	c #898989",
"X.	c #656565",
"Y.	c #EEE6E6",
"Z.	c #D20000",
"`.	c #1E0000",
" +	c #9F0000",
".+	c #E00909",
"++	c #2E2E2E",
"@+	c #B3B3B3",
"#+	c #010101",
"$+	c #E8B3B3",
"%+	c #5E0000",
"&+	c #450000",
"*+	c #E63C3C",
"=+	c #111111",
"-+	c #1F1F1F",
";+	c #E18080",
">+	c #930000",
",+	c #0D0000",
"'+	c #C50000",
")+	c #ED6F6F",
"!+	c #DCDCDC",
"~+	c #6D6D6D",
"{+	c #D73333",
"]+	c #400000",
"^+	c #900000",
"/+	c #F4AAAA",
"(+	c #7B7B7B",
"_+	c #A4A4A4",
":+	c #737373",
"<+	c #A80000",
"[+	c #790000",
"}+	c #E00808",
"|+	c #FCEAEA",
"1+	c #EAEAEA",
"2+	c #B4B4B4",
"3+	c #E84747",
"4+	c #E7E7E7",
"5+	c #C8C8C8",
"6+	c #F6B5B5",
"7+	c #0C0C0C",
"8+	c #7D7D7D",
"9+	c #FDEFEF",
"0+	c #F3A1A1",
"a+	c #662121",
"b+	c #BC0000",
"c+	c #E42525",
"d+	c #5A5A5A",
"e+	c #FBFBFB",
"f+	c #979797",
"g+	c #565656",
"h+	c #EC6565",
"i+	c #E32020",
"j+	c #E00606",
"k+	c #700000",
"l+	c #794A4A",
"m+	c #808080",
"n+	c #717171",
"o+	c #6B6B6B",
"p+	c #515151",
"q+	c #E31E1E",
"r+	c #080000",
"s+	c #280000",
"t+	c #010000",
"u+	c #585858",
"v+	c #BDBDBD",
"w+	c #F6B7B7",
"x+	c #C30000",
"y+	c #CD5050",
"z+	c #DED9D9",
"A+	c #F1F1F1",
"B+	c #F08484",
"C+	c #F29B9B",
"D+	c #FFFCFC",
"E+	c #E95252",
"F+	c #DF0202",
"G+	c #E42B2B",
"H+	c #F19090",
"I+	c #FDF0F0",
"J+	c #E73D3D",
"K+	c #E73E3E",
"L+	c #E95050",
"M+	c #EF7D7D",
"N+	c #FBDDDD",
". . . . . . . . . . . . . . . . . . . . . . . . . . . . . . . . . . . . . . . . . . . . . . . . ",
". . . . . . . . . . . . . . . . . . . . . . . . . . . . . . . . . . . . . . . . . . . . . . . . ",
". . . . . . . . . . . . . . . . . . . . . . . . . . + @ @ @ @ @ @ @ @ # . . . . . . . . . . . . ",
". . . . . . . . . . . . . . . . . . . . . . . . . . $ % % % % % % % % & . . . . . . . . . . . . ",
". . . . . . . . . . . . . . . . . . . . . . . . . . * % % % % % % % % = . . . . . . . . . . . . ",
". . . . . . . . . . . - ; > . . . . . . . . . . . . @ % % % % % % % % , . . . . . . . . . . . . ",
". . . . . . . . . . ' ) ! ! ~ . . . . . . . . . . { ] % % % % ^ / ( _ : . . . . . . . . . . . . ",
". . . . . . . . . . < ! ! [ } . . . . . . . . . . | % % % % % 1 ! 2 3 . . . . . . . . . . . . . ",
". . . . . . . . . . 4 ! ! 5 6 6 6 6 6 6 6 7 . . . 8 % % % % % 9 ! ! 0 . . . . . . . . . . . . . ",
". . . . . . . . . a b ! ! ! ! ! ! ! ! ! ! c ' . . d % % % % % 9 ! e f . . . . . . . . . . . . . ",
". . . . . . . . . g ! ! ! ! ! ! ! ! ! ! ! h i . . j % % % % % k ! l m . . . . . . . . . . . . . ",
". . . . . . . . n ! ! o p q q q q q r ! ! s . . t u % % % % % v ! w x . . . . . . . . . . . . . ",
". . . . . . . y z ! ! A . . . . . B ! ! C D . . E F F F F F G ! ! H q q q q q q I . . . . . . . ",
". . . . . . I J ! ! K ' . . . . L 5 ! ! A . . . M ! ! ! ! ! ! ! ! ! ! ! ! ! ! ! N O . . . . . . ",
". . . . . . P ! ! Q R . . . . S T ! ! U V . . . M ! ! ! ! ! ! ! ! ! ! ! ! ! ! ! ! W D . . . . . ",
". . . . . X ! ! Y B . . . . Z ` ! !  .... . . . +.@.@.@.@.@.#.! ! [ 6 6 6 6 6 C ! ! > . . . . . ",
". . . . $.%.! &.*.. . . . q =.! ! -.;.. . . . . >.% % % % % ,.! ! '.. . . . . ).! ! > . . . . . ",
". . . !.~.! ! %.{.{.{.{.{.].! ! ! b {.{.{.{.{.{.^.% % % % % /.! ! ;.. . . . . ).! ! > . . . . . ",
". . . . . (._.! ! ! ! ! ! ! ! ! ! ! ! ! ! ! ! ! l % % % % % :.! -.. . . . . . ).! ! > . . . . . ",
". . . . . . q ! ! <.[.[.[.[.}.! ! C [.[.[.[.|.! l % % % % 1.! ! 2.. . . . . . ).! ! > . . . . . ",
". . . . . . q ! ! 6 . . . . 3.! ! 4.. . . . =.! l % % % % 5.! ! _.. . . . . . ).! ! > . . . . . ",
". . . . . . q ! ! 6 . . . . 3.! ! 4.. . . . =.! l % % % % 6.! ! 7.. . . . . . ).! ! 7 . . . . . ",
". . . . . . q ! ! 6 . . . . 3.! ! 4.. . . . =.! l % % % % 8.! &.9.. . . . . . ).! ! . . . . . . ",
". . . . . . q ! ! 6 . . . . 3.! ! 4.. . . . =.! l % % % 0.a.! ~.. . . . . . . b.! ! . . . . . . ",
". . . . . . q ! ! 6 . . . . 3.! ! 4.. . . . =.! l % % % c.! ! d.. . . . . . . M ! ! . . . . . . ",
". . . . . . q ! ! }.=.=.=.=.~.! ! e.=.=.=.=.f.! l % % % g.! ! h.. . . . . . . M ! ! . . . . . . ",
". . . . . . q ! ! ! ! ! ! ! ! ! ! ! ! ! ! ! ! ! l % % i.j.! k.l.. . . . . . . M ! m.. . . . . . ",
". . . . . . q ! ! ! ! ! ! ! ! ! ! ! ! ! ! ! ! ! l % % n.! ! o.. . . . . . . . o ! M . . . . . . ",
". . . . . . O =.=.p.q.r.r.r.r.r.r.s.! ! a t.u.v.w.% % x.! ! y.. . . . . . . . ! ! M . . . . . . ",
". . . . . . . . . . z.{.A.X B.. . C.! ! q D.% % % % E.! ! F.G.. . . . . . . . ! ! H.. . . . . . ",
". . . . . . . . . . I.! ! J.K.. . C.! ! q L.% % % M.N.! ! O.P.. . . . . . . > ! ! ).. . . . . . ",
". . . . . . . . . . Q.! ! R.. . . C.! ! q S.% % % T.! ! U.M.V.. . . . . . . 3.! ! W.. . . . . . ",
". . . . . . . . . . X.! ! I.. . . C.! ! Y.% % % Z.`.! !  +.+. . . . . . . S ++! ! @+. . . . . . ",
". . . . . . . . . . ~.! #+;.. . . C.! ! $+% % % %+! ! &+% *+. . . . . 3.U C ! ! =+D . . . . . . ",
". . . . . . . . . y &.! -+. . . . C.! ! ;+% % >+! ! ,+'+% )+. . . . . > ! ! ! ! Q.. !+7.. . . . ",
". . . . . . . . . W.! ! ~+. . . . C.! ! {+% % ]+! ! ^+% % /+. . . . . . g ! m.(+' . _+%.:+. . . ",
". . . . . . . . Z z ! ! B . . . . C.! ! F % % % <+[+% % }+|+. . . . . . 1+> Z . . . _.! ! 2+. . ",
". . . . . . . . C.! ! g . . . . . C.! ! F % % % % % % % 3+. . . . . . . . . . . . . 2.! ! 4+. . ",
". . . . . . . z.&.! b 5+. . . . . C.! ! F % % % % % % % 6+. . . . . . . . . . . . . 7+! o . . . ",
". . . . . . A b ! ! 8+. . . . 9+0+a+! ! b+% % % % % % c+t . . . . . . . . . . . . '.! ! d+. . . ",
". . . . e+f+b ! ! g+e+. h+i+i+j+% v.! ! #.9 9 9 k+k+k+l+m+m+m+m+m+m+m+m+m+m+m+m+n+=+! ! 7.. . . ",
". . . . o+! ! ! p+S . . q+% % % % 0.r+! ! ! ! ! ! ! ! ! ! ! ! ! ! ! ! ! ! ! ! ! ! ! ! b.e+. . . ",
". . . . 1+A.#+C.B.. . |+% % % % % % <+s+t+! ! ! ! ! ! ! ! ! ! ! ! ! ! ! ! ! ! ! ! m.u+1+. . . . ",
". . . . . ..v+. . . . w+% % % % % % % % '+x+x+x+y+z+r.r.r.r.r.r.r.r.r.r.r.r.r.r.r.A+. . . . . . ",
". . . . . . . . . . . B+% % % % % % % % % % ] C+D+. . . . . . . . . . . . . . . . . . . . . . . ",
". . . . . . . . . . . E+% % % % % % % F+G+H+I+. . . . . . . . . . . . . . . . . . . . . . . . . ",
". . . . . . . . . . . J+i+i+i+K+L+M+8 N+. . . . . . . . . . . . . . . . . . . . . . . . . . . . ",
". . . . . . . . . . . . . . . . . . . . . . . . . . . . . . . . . . . . . . . . . . . . . . . . "};
