/* XPM */
static char * iconJben_32_xpm[] = {
"32 32 135 2",
"  	c None",
". 	c #FFFFFF",
"+ 	c #FDEFEF",
"@ 	c #EF8080",
"# 	c #F29393",
"$ 	c #F6B3B3",
"% 	c #DF0000",
"& 	c #E95050",
"* 	c #CBCBCB",
"= 	c #A7A7A7",
"- 	c #FBFBFB",
"; 	c #F08787",
"> 	c #F08383",
", 	c #606060",
"' 	c #000000",
") 	c #4C4C4C",
"! 	c #EA5454",
"~ 	c #6C0000",
"{ 	c #AE0000",
"] 	c #EBEBEB",
"^ 	c #080808",
"/ 	c #747474",
"( 	c #808080",
"_ 	c #F3F3F3",
": 	c #E42424",
"< 	c #C30000",
"[ 	c #070000",
"} 	c #D7D3D3",
"| 	c #787878",
"1 	c #BC0000",
"2 	c #4C1414",
"3 	c #D7D7D7",
"4 	c #0C0C0C",
"5 	c #9B9B9B",
"6 	c #9F9F9F",
"7 	c #303030",
"8 	c #979797",
"9 	c #F6BBBB",
"0 	c #A70000",
"a 	c #614C4C",
"b 	c #343434",
"c 	c #8F8F8F",
"d 	c #BBBBBB",
"e 	c #282828",
"f 	c #A36868",
"g 	c #8B0000",
"h 	c #570000",
"i 	c #4F4848",
"j 	c #A3A3A3",
"k 	c #686868",
"l 	c #444444",
"m 	c #141414",
"n 	c #040404",
"o 	c #C7C7C7",
"p 	c #202020",
"q 	c #545454",
"r 	c #8B8B8B",
"s 	c #181818",
"t 	c #E7E7E7",
"u 	c #E3E3E3",
"v 	c #939393",
"w 	c #812020",
"x 	c #700000",
"y 	c #230000",
"z 	c #646464",
"A 	c #DFDFDF",
"B 	c #3C3C3C",
"C 	c #880000",
"D 	c #2A0000",
"E 	c #404040",
"F 	c #D3D3D3",
"G 	c #540000",
"H 	c #DC0000",
"I 	c #BFBFBF",
"J 	c #B50000",
"K 	c #840000",
"L 	c #490000",
"M 	c #2C2C2C",
"N 	c #707070",
"O 	c #C3C3C3",
"P 	c #D80000",
"Q 	c #0A0000",
"R 	c #0B0808",
"S 	c #F7F7F7",
"T 	c #990000",
"U 	c #573434",
"V 	c #352020",
"W 	c #A76C6C",
"X 	c #EFEFEF",
"Y 	c #EC6868",
"Z 	c #C00000",
"` 	c #030000",
" .	c #150000",
"..	c #EF9797",
"+.	c #AFAFAF",
"@.	c #E63434",
"#.	c #7D0000",
"$.	c #F8CBCB",
"%.	c #484848",
"&.	c #1C1C1C",
"*.	c #9F9B9B",
"=.	c #E00808",
"-.	c #D90404",
";.	c #FEF7F7",
">.	c #838383",
",.	c #997070",
"'.	c #8F0000",
").	c #E53030",
"!.	c #6C6C6C",
"~.	c #913030",
"{.	c #460000",
"].	c #D10000",
"^.	c #F5AFAF",
"/.	c #E21818",
"(.	c #101010",
"_.	c #F9CFCF",
":.	c #F7BFBF",
"<.	c #F29797",
"[.	c #912C2C",
"}.	c #620000",
"|.	c #ABABAB",
"1.	c #242424",
"2.	c #E21C1C",
"3.	c #B3B3B3",
"4.	c #FCEBEB",
"5.	c #A40000",
"6.	c #420000",
"7.	c #380000",
"8.	c #3A1414",
"9.	c #E84C4C",
"0.	c #FCE7E7",
"a.	c #EC6464",
"b.	c #F8C7C7",
"c.	c #FAD7D7",
"d.	c #FEF3F3",
". . . . . . . . . . . . . . . . . . . . . . . . . . . . . . . . ",
". . . . . . . . . . . . . . . . . + @ @ @ @ @ # . . . . . . . . ",
". . . . . . . . . . . . . . . . . $ % % % % % & . . . . . . . . ",
". . . . . . . * = - . . . . . . . ; % % % % % > . . . . . . . . ",
". . . . . . . , ' ) . . . . . . . ! % % % ~ { $ . . . . . . . . ",
". . . . . . ] ^ ' / ( ( ( ( _ . . : % % < ' [ } . . . . . . . . ",
". . . . . . | ' ' ' ' ' ' ' / . + % % % 1 ' 2 . . . . . . . . . ",
". . . . . 3 ^ 4 5 6 6 6 7 ' 8 . 9 % % % 0 ' a . . . . . . . . . ",
". . . . - b ' c . . . d ' e - . f g g g h ' i 6 6 6 j - . . . . ",
". . . . k ' l . . . 3 m n o . . p ' ' ' ' ' ' ' ' ' ' q - . . . ",
". . . r ' s t . . u s ' v . . . w x x x y ' z ( ( ( p ' A . . . ",
". . o n ' B , , , s ' 4 , , , , C % % % D ' t . . . E ' A . . . ",
". . . F k ' ' ' ' ' ' ' ' ' ' ' G % % H [ m . . . . E ' A . . . ",
". . . . 6 ' , I I c ' , I I = ' G % % J ' l . . . . E ' A . . . ",
". . . . 6 ' ( . . I ' ( . . A ' G % % K ' ( . . . . E ' _ . . . ",
". . . . 6 ' ( . . I ' ( . . A ' G % % L ' I . . . . M ' . . . . ",
". . . . 6 ' N A A = ' N A A O ' G % P Q R S . . . . p ' . . . . ",
". . . . 6 ' ' ' ' ' ' ' ' ' ' ' G % T ' U . . . . . p n . . . . ",
". . . . 6 ' p E E E E e ' e V ' G % L ' W . . . . . 4 p . . . . ",
". . . . _ A X N c ] . 6 ' 6 Y % % Z `  .... . . . . ' M . . . . ",
". . . . . . . s ' +.. 6 ' 6 @.% % G ' #.$.. . . . 3 ' %.. . . . ",
". . . . . . _ ' &.. . 6 ' *.=.% J `  .-.;.. . . . >.' N . . . . ",
". . . . . . I ' ) . . 6 ' ,.% P D ' '.).. . . O b ' ' O - . . . ",
". . . . . . !.' c . . 6 ' ~.% #.' {.% Y . . . - p n | . | ( . . ",
". . . . . u ^ ^ t . . 6 ' g % % 0 ].% ^.. . . . ] X . . l ' F . ",
". . . . - %.' / . . . 6 ' g % % % % /.;.. . . . . . . . (.4 . . ",
". . . - q ' M _ _.:.<.[.' }.< < % % > . . . . . . . . |.' %.. . ",
". . X 7 ' 1.A . 2.% % Z ` ' ' ' ' ' ' ' ' ' ' ' ' ' ' ' ' 3.. . ",
". . . j %.t . 4.% % % % 5.6.7.7.8.E E E E E E E E E E ) |.. . . ",
". . . . . . . $ % % % % % % % 9.0.. . . . . . . . . . . . . . . ",
". . . . . . . > % % % % : a.b.. . . . . . . . . . . . . . . . . ",
". . . . . . . c.:.:.c.d.. . . . . . . . . . . . . . . . . . . . "};
